<?xml version="1.0" encoding="UTF-8" standalone="no"?>
<!-- Created with Inkscape (http://www.inkscape.org/) -->

<svg
   width="512"
   height="512"
   viewBox="0 0 512 512"
   version="1.1"
   id="svg1"
   inkscape:version="1.3.2 (091e20e, 2023-11-25, custom)"
   sodipodi:docname="mocapicon.svg"
   xmlns:inkscape="http://www.inkscape.org/namespaces/inkscape"
   xmlns:sodipodi="http://sodipodi.sourceforge.net/DTD/sodipodi-0.dtd"
   xmlns:xlink="http://www.w3.org/1999/xlink"
   xmlns="http://www.w3.org/2000/svg"
   xmlns:svg="http://www.w3.org/2000/svg">
  <sodipodi:namedview
     id="namedview1"
     pagecolor="#ffffff"
     bordercolor="#000000"
     borderopacity="0.25"
     inkscape:showpageshadow="2"
     inkscape:pageopacity="0.0"
     inkscape:pagecheckerboard="0"
     inkscape:deskcolor="#d1d1d1"
     inkscape:document-units="px"
     inkscape:zoom="1.5878906"
     inkscape:cx="77.146373"
     inkscape:cy="220.10332"
     inkscape:window-width="2560"
     inkscape:window-height="1009"
     inkscape:window-x="-8"
     inkscape:window-y="-8"
     inkscape:window-maximized="1"
     inkscape:current-layer="layer1" />
  <defs
     id="defs1">
    <linearGradient
       id="linearGradient3"
       inkscape:collect="always">
      <stop
         style="stop-color:#f9f9f9;stop-opacity:0;"
         offset="0"
         id="stop3" />
      <stop
         style="stop-color:#f9f9f9;stop-opacity:0;"
         offset="1"
         id="stop4" />
    </linearGradient>
    <rect
       x="124.06396"
       y="266.39114"
       width="278.98647"
       height="147.99508"
       id="rect2" />
    <linearGradient
       inkscape:collect="always"
       xlink:href="#linearGradient3"
       id="linearGradient4"
       x1="161.37292"
       y1="267.71396"
       x2="492.64547"
       y2="267.71396"
       gradientUnits="userSpaceOnUse" />
  </defs>
  <g
     inkscape:label="Layer 1"
     inkscape:groupmode="layer"
     id="layer1">
    <rect
       style="display:inline;fill:#ffffff;stroke:#f9f9f9;stroke-width:7.113;stroke-opacity:0"
       id="rect11"
       width="490.58798"
       height="377.85977"
       x="13.225093"
       y="11.335793"
       ry="27.709721" />
    <path
       d="M 91.442827,97.495028 123.3321,25.800181 h 14.26428 V 134.388 H 122.73464 V 53.059159 l 0.74682,4.779657 -26.736202,61.463394 H 86.140395 L 59.404192,59.332458 60.151014,53.059159 V 134.388 H 45.289269 V 25.800181 H 59.553556 Z M 192.7118,135.50823 q -15.23516,0 -23.59956,-8.81249 -8.3644,-8.88717 -8.3644,-24.94383 V 89.130629 q 0,-15.907294 8.3644,-24.645104 8.3644,-8.737809 23.59956,-8.737809 15.23515,0 23.59955,8.737809 8.3644,8.73781 8.3644,24.645104 v 12.845331 q 0,15.98197 -8.3644,24.79446 -8.3644,8.73781 -23.59955,8.73781 z m 0,-14.48833 q 7.99098,0 12.32255,-5.0037 4.40624,-5.00371 4.40624,-14.04024 V 89.130629 q 0,-9.036538 -4.40624,-13.965559 -4.33157,-4.92902 -12.32255,-4.92902 -7.91631,0 -12.32256,4.92902 -4.40624,4.929021 -4.40624,13.965559 v 12.845331 q 0,9.03653 4.40624,14.04024 4.40625,5.0037 12.32256,5.0037 z m 84.91357,14.48833 q -15.98197,0 -24.79446,-8.81249 -8.73781,-8.81249 -8.73781,-24.86915 V 89.055947 q 0,-15.907294 8.73781,-24.570422 8.81249,-8.737809 24.79446,-8.737809 9.11122,0 16.43007,3.211332 7.31885,3.211331 11.65041,9.185902 v 0 l -10.97827,9.858041 v 0 q -3.21133,-3.734106 -7.61758,-5.750524 -4.40624,-2.016417 -9.26058,-2.016417 -8.81249,0 -13.66683,4.92902 -4.85434,4.929021 -4.85434,13.890877 v 12.770643 q 0,9.1859 4.85434,14.18961 4.85434,5.0037 13.66683,5.0037 4.85434,0 9.26058,-2.16578 4.40625,-2.16578 7.61758,-6.12394 v 0 l 10.97827,10.60487 v 0 q -4.33156,5.8252 -11.72509,9.03653 -7.31885,3.13665 -16.35539,3.13665 z m 88.6477,-1.12023 V 85.247158 q 0,-7.617577 -4.10752,-11.799777 -4.03283,-4.256881 -11.50105,-4.256881 -4.55561,0 -9.03653,1.41896 -4.40625,1.344279 -7.91631,3.958153 l -11.12764,-7.617577 q 4.40625,-5.302432 11.57573,-8.215035 7.24417,-2.987285 16.05666,-2.987285 14.56302,0 22.55401,7.542895 7.99098,7.542896 7.99098,21.284408 V 134.388 Z m -18.96926,1.12023 q -14.26429,0 -21.43377,-5.89989 -7.09481,-5.89988 -7.09481,-18.07307 0,-11.575732 6.49735,-17.251574 6.57203,-5.750524 19.6414,-5.750524 h 22.03123 l 1.04555,12.247868 h -23.0021 q -5.89989,0 -8.88717,2.68856 -2.98729,2.61387 -2.98729,8.06567 0,5.89989 3.95816,8.73781 3.95815,2.83792 11.87446,2.83792 8.66312,0 12.99469,-1.86705 4.33156,-1.86706 4.33156,-5.82521 l 1.56833,10.90359 q -2.01642,3.13665 -5.00371,5.15307 -2.98728,2.01641 -6.87075,2.98728 -3.80879,1.04555 -8.66313,1.04555 z m 56.60907,30.39563 V 56.867948 h 15.23515 V 165.90386 Z m 34.72719,-30.39563 q -7.24417,0 -12.62128,-3.43538 -5.37712,-3.51006 -7.91631,-9.85804 l 1.04555,-16.20602 q 0,5.0037 1.79237,8.51376 1.79237,3.51006 5.15307,5.37712 3.43538,1.86705 8.28971,1.86705 7.5429,0 11.65042,-4.55561 4.1822,-4.63029 4.1822,-12.99469 V 87.41294 q 0,-8.513763 -4.1822,-13.218737 -4.10752,-4.704975 -11.65042,-4.704975 -4.85433,0 -8.28971,1.792371 -3.3607,1.792372 -5.15307,5.22775 -1.79237,3.435378 -1.79237,8.364398 l -1.56832,-14.936426 q 3.51006,-6.796074 9.1859,-10.455498 5.67584,-3.734107 12.62128,-3.734107 12.47191,0 19.26799,8.289717 6.79607,8.215034 6.79607,23.300825 v 16.878162 q 0,14.86174 -7.02012,23.07678 -7.02012,8.21503 -19.79076,8.21503 z"
       id="text1"
       style="font-size:152.949px;font-family:Bahnschrift;-inkscape-font-specification:Bahnschrift;text-align:center;text-anchor:middle;stroke:#ffffff;stroke-width:1.59321;stroke-opacity:0"
       inkscape:label="text1"
       aria-label="Mocap" />
    <path
       d="m 325.78114,191.2325 q -16.45596,19.89452 -25.29796,32.78911 l -15.35071,22.59624 q -8.96482,12.77179 -16.82438,21.49099 l 27.01725,39.54343 q 16.08754,23.45588 28.61372,38.31536 3.31575,4.05259 3.31575,8.4736 0,5.15783 -3.80698,8.96481 -3.68417,3.80697 -8.842,3.80697 -4.66662,0 -8.7192,-3.80697 -9.08762,-8.5964 -18.91208,-23.33308 l -16.45596,-25.29796 -19.28048,-27.63128 -42.24515,48.87666 -22.59624,25.29796 q -4.05259,4.05259 -8.96482,4.05259 -5.03503,0 -8.84201,-3.80698 -3.80697,-3.80697 -3.80697,-8.96481 0,-4.421 3.19295,-8.35078 l 22.10502,-24.68394 46.05212,-53.42047 q -13.50862,-18.05243 -28.73653,-36.22767 l -14.24545,-19.28049 q -8.5964,-11.54373 -15.96474,-17.68401 -5.15784,-4.2982 -5.15784,-9.94726 0,-5.03503 3.56137,-8.96481 3.56136,-3.92978 8.842,-3.92978 10.43849,0 26.64883,22.22782 5.03504,7.49115 15.35071,21.24538 13.99985,16.70157 26.64883,33.52595 l 27.99969,-39.0522 q 27.26286,-37.94695 35.36803,-37.94695 5.03503,0 8.84201,3.80697 3.80698,3.80698 3.80698,8.96482 0,4.29819 -3.31576,8.35078 z M 476.7093,358.2482 q -4.66662,0 -8.71921,-3.92978 -40.64867,-40.15745 -90.38496,-54.03449 l 0.98244,24.06991 0.61403,24.19271 q 0,5.40345 -3.56136,8.96482 -3.43856,3.68417 -8.71921,3.68417 -5.28064,0 -8.842,-3.68417 -3.43856,-3.56137 -3.43856,-8.96482 0,-9.70164 -0.98245,-28.85933 -0.85964,-19.28049 -0.85964,-28.98213 0,-11.29812 2.45612,-33.64875 2.45611,-22.35064 2.45611,-33.52595 0,-6.26309 -1.22806,-18.54366 -1.10525,-12.28056 -1.10525,-18.54365 0,-6.99992 3.92978,-12.28057 4.66662,-6.5087 12.8946,-5.89467 l 29.59616,2.33331 q 16.82438,2.0877 28.36811,8.22798 49.73629,26.40322 49.73629,64.47297 0,18.66646 -16.94718,33.03472 -13.63143,11.54374 -34.01717,17.56121 38.19256,20.50855 57.10464,43.2276 3.19294,3.92978 3.19294,8.35078 0,5.15784 -3.80697,8.96482 -3.68417,3.80697 -8.7192,3.80697 z m -78.22721,-162.34908 -18.17524,-1.47367 1.22806,14.85948 q 0.85964,9.08762 0.85964,14.85949 0,9.82445 -1.59648,24.43832 l -2.57892,24.43833 q 1.71928,0 5.28065,0.12281 3.68417,0.1228 5.52625,0.1228 31.31545,0 46.91177,-8.35078 6.87711,-3.80698 12.77178,-9.94726 6.5087,-6.87712 6.5087,-11.66654 0,-17.06999 -19.40329,-31.80667 -17.80682,-13.50862 -37.33292,-15.59631 z"
       id="text3"
       style="font-size:251.506px;font-family:'Comic Sans MS';-inkscape-font-specification:'Comic Sans MS';text-align:center;text-anchor:middle;stroke:#f9f9f9;stroke-width:6.82;stroke-opacity:0"
       aria-label="XR" />
  </g>
</svg>
